<?xml version="1.0" encoding="utf-8"?>
<!-- Generator: Adobe Illustrator 25.4.1, SVG Export Plug-In . SVG Version: 6.00 Build 0)  -->
<svg version="1.1" id="Layer_1" xmlns="http://www.w3.org/2000/svg" xmlns:xlink="http://www.w3.org/1999/xlink" x="0px" y="0px"
	 viewBox="0 0 1080 263" style="enable-background:new 0 0 1080 263;" xml:space="preserve">
<style type="text/css">
	.st0{fill:#171717;}
	.st1{enable-background:new    ;}
</style>
<g>
	<path class="st0" d="M291.2,0.4v73.4L281,83.7L271.1,94v128.6h-0.2v0.2h-34c-8.5,24-31.3,40.1-56.8,40.1l0,0
		c-33.3,0-60.2-27-60.2-60.2l0,0l0.4-76.4c0-33.3,27-60.2,60.3-60.2l0,0c33.3,0,60.2,27,60.2,60.2l0,0v0.1h-19.9v0.2h-0.3v-0.4
		c0-22.1-17.9-40.1-40-40.1s-40.1,17.9-40.1,40l0,0v0.4h-0.1l-0.4,75.8h0.1v0.4c0,22.1,17.9,40,39.9,40.1c0.7,0,1.4,0,2.1-0.1
		c21.4-1.1,38-19,38-40.4l0,0H251V81.7l10.3-9.9l9.9-10.3v-41H251v30h-60.4V30.4h-20.1v20.1h-60v-30H90.4v41l9.9,10.3l10.3,9.9
		v140.9H90.4V94l-9.9-10.3l-10.3-9.9V0.4h60.4v30h19.7V10.3h60.4v20.1h20.1v-30C230.8,0.4,291.2,0.4,291.2,0.4z M196.8,162.3
		c0-7.1-5.8-12.9-12.9-12.9c-7.1,0-12.9,5.8-12.9,12.9c0,4.2,2,8.1,5.4,10.5v8.9c-0.2,4.1,3,7.7,7.1,7.9s7.7-3,7.9-7.1
		c0-0.3,0-0.5,0-0.8v-8.9C194.8,170.5,196.8,166.5,196.8,162.3z"/>
</g>
<g class="st1">
	<path class="st0" d="M405.5,104.9c7.9,3.6,14,8.7,18.3,15.2c4.3,6.6,6.4,14.4,6.4,23.4c0,8.9-2.1,16.6-6.4,23.3
		c-4.3,6.6-10.4,11.7-18.3,15.2s-17.2,5.3-27.9,5.3h-24.4v33.4h-28V99.5h52.4C388.3,99.5,397.6,101.3,405.5,104.9z M395.2,159
		c4.4-3.6,6.6-8.8,6.6-15.5c0-6.8-2.2-12-6.6-15.7c-4.4-3.6-10.8-5.4-19.2-5.4h-22.8v42H376C384.4,164.4,390.8,162.6,395.2,159z"/>
	<path class="st0" d="M527.2,220.6l-23.4-33.7h-1.4H478v33.7h-28V99.5h52.4c10.7,0,20,1.8,27.9,5.4c7.9,3.6,14,8.7,18.3,15.2
		c4.3,6.6,6.4,14.4,6.4,23.4s-2.2,16.8-6.5,23.3s-10.5,11.5-18.4,15l27.2,38.9h-30.1V220.6z M520.1,127.8
		c-4.4-3.6-10.8-5.4-19.2-5.4H478v42.2h22.8c8.4,0,14.8-1.8,19.2-5.5s6.6-8.9,6.6-15.6C526.7,136.7,524.5,131.4,520.1,127.8z"/>
	<path class="st0" d="M601.8,214.6c-10.1-5.4-18-12.9-23.7-22.4s-8.6-20.2-8.6-32.1c0-11.9,2.9-22.6,8.6-32.1s13.6-17,23.7-22.4
		c10.1-5.4,21.4-8.1,34-8.1s23.9,2.7,33.9,8.1s17.9,12.9,23.7,22.4s8.7,20.2,8.7,32.1c0,11.9-2.9,22.6-8.7,32.1s-13.7,17-23.7,22.4
		s-21.3,8.1-33.9,8.1C623.2,222.7,611.9,220,601.8,214.6z M655.2,193.9c5.8-3.3,10.3-7.9,13.6-13.8c3.3-5.9,4.9-12.6,4.9-20.1
		s-1.6-14.2-4.9-20.1s-7.8-10.5-13.6-13.8s-12.2-4.9-19.4-4.9s-13.6,1.6-19.4,4.9c-5.8,3.3-10.3,7.9-13.6,13.8
		c-3.3,5.9-4.9,12.6-4.9,20.1s1.6,14.2,4.9,20.1c3.3,5.9,7.8,10.5,13.6,13.8s12.2,4.9,19.4,4.9C643,198.8,649.4,197.2,655.2,193.9z"
		/>
	<path class="st0" d="M767.3,173.1L751,190v30.6h-27.9V99.5H751v56.6l53.6-56.6h31.1l-50.2,54l53.1,67.1H806L767.3,173.1z"/>
	<path class="st0" d="M945,198.1v22.5h-93.8V99.5h91.5V122H879v26.3h56.2v21.8H879v28H945z"/>
	<path class="st0" d="M1024.2,177.7v42.9h-28v-43.2l-46.9-77.8H979l32.4,53.8l32.4-53.8h27.5L1024.2,177.7z"/>
</g>
</svg>
