<?xml version="1.0" standalone="no"?>
<!DOCTYPE svg PUBLIC "-//W3C//DTD SVG 20010904//EN"
 "http://www.w3.org/TR/2001/REC-SVG-20010904/DTD/svg10.dtd">
<svg version="1.0" xmlns="http://www.w3.org/2000/svg"
 width="1083.000000pt" height="1083.000000pt" viewBox="0 0 1083.000000 1083.000000"
 preserveAspectRatio="xMidYMid meet">
<metadata>
Created by potrace 1.11, written by Peter Selinger 2001-2013
</metadata>
<g transform="translate(0.000000,1083.000000) scale(0.100000,-0.100000)"
fill="#000000" stroke="none">
<path d="M1336 10201 c-2 -3 -4 -441 -4 -973 0 -878 2 -969 17 -985 9 -10 50
-56 91 -103 41 -47 77 -87 80 -90 3 -3 35 -39 70 -80 36 -41 68 -77 71 -80 3
-3 57 -63 119 -135 63 -71 116 -132 119 -135 4 -3 31 -34 61 -70 30 -36 61
-71 68 -78 9 -11 12 -561 12 -2682 l0 -2668 375 0 375 -1 1 92 c0 51 0 1308 1
2794 l1 2703 -27 34 c-14 19 -32 40 -39 48 -7 7 -133 153 -281 323 -148 171
-289 333 -315 362 l-46 52 0 461 c0 401 2 461 15 464 13 3 1125 0 1142 -3 3 0
6 -259 6 -573 1 -315 1 -587 1 -603 l1 -30 958 0 957 0 2 375 c1 206 2 394 2
418 l1 42 290 0 289 0 -1 -390 c0 -215 2 -393 6 -397 4 -5 1783 -8 1891 -4 20
1 20 7 20 581 0 319 2 581 5 581 3 1 243 2 533 3 346 1 531 -2 535 -9 4 -5 7
-206 8 -445 l1 -435 -356 -360 -356 -360 1 -2506 1 -2506 -475 1 c-260 1 -476
-3 -479 -7 -3 -5 -20 -72 -38 -150 -106 -453 -252 -737 -493 -966 -161 -151
-427 -315 -590 -362 -92 -27 -196 -34 -482 -33 -243 1 -348 11 -440 40 -125
41 -341 166 -479 278 -48 39 -246 241 -276 281 -17 22 -32 42 -36 45 -27 23
-121 185 -205 351 l-23 46 -7 854 c-13 1702 -10 2542 10 2649 3 14 7 43 11 65
16 116 110 320 210 460 150 210 348 380 595 513 148 79 195 95 315 110 76 9
619 8 702 -2 101 -11 202 -50 383 -148 125 -67 331 -246 446 -388 16 -19 31
-37 34 -40 19 -16 115 -173 145 -234 60 -124 110 -326 171 -681 11 -65 -21
-60 385 -60 l371 0 -6 84 c-12 145 -29 267 -53 371 -8 36 -16 72 -18 80 -16
82 -84 291 -136 423 -112 280 -214 426 -503 712 -229 227 -413 364 -593 440
-229 96 -542 180 -798 212 -77 10 -362 10 -438 1 -88 -12 -190 -28 -197 -33
-4 -2 -22 -7 -41 -10 -19 -3 -52 -11 -74 -17 -22 -6 -44 -12 -50 -14 -102 -23
-346 -127 -500 -214 -49 -27 -219 -140 -259 -172 -409 -324 -683 -712 -825
-1168 -70 -225 -72 -285 -72 -1785 0 -1311 7 -1666 36 -1895 3 -19 7 -53 10
-75 2 -22 7 -51 10 -65 2 -14 10 -50 16 -80 10 -54 14 -69 43 -160 62 -197
241 -510 385 -675 72 -82 259 -262 341 -328 327 -262 750 -466 1070 -516 216
-34 549 -32 750 5 136 24 334 96 570 207 227 106 438 257 651 467 188 185 339
382 434 565 20 39 60 115 89 169 l53 99 552 0 551 -1 0 2738 0 2738 354 354
353 353 -1 970 -1 970 -1291 1 -1291 1 -1 -599 c0 -330 -2 -602 -5 -604 -4 -4
-306 -7 -389 -5 -17 1 -18 28 -18 416 0 325 -3 415 -12 416 -7 0 -339 2 -738
4 -802 4 -1033 10 -1165 31 -125 19 -164 20 -167 5 -2 -9 -4 -208 -3 -443 0
-422 0 -428 -20 -428 -42 -1 -263 -1 -338 -1 l-78 1 6 258 c6 286 16 782 18
882 l1 65 -1332 1 c-733 1 -1334 -2 -1336 -5z"/>
<path d="M5495 4116 c-239 -46 -447 -276 -454 -503 -4 -135 99 -352 233 -488
87 -89 93 -111 100 -345 2 -75 9 -156 16 -180 27 -102 105 -180 179 -180 55 0
107 28 169 89 67 66 89 126 92 251 5 279 13 307 114 413 159 166 214 377 151
576 -35 109 -84 175 -187 253 -130 97 -281 139 -413 114z"/>
</g>
</svg>
